<?xml version="1.0" standalone="no"?>
<!DOCTYPE svg PUBLIC "-//W3C//DTD SVG 20010904//EN"
 "http://www.w3.org/TR/2001/REC-SVG-20010904/DTD/svg10.dtd">
<svg version="1.0" xmlns="http://www.w3.org/2000/svg"
 width="1000.000000pt" height="1000.000000pt" viewBox="0 0 1000.000000 1000.000000"
 preserveAspectRatio="xMidYMid meet">
<metadata>
Created by potrace 1.14, written by Peter Selinger 2001-2017
</metadata>
<g transform="translate(0.000000,1000.000000) scale(0.100000,-0.100000)"
fill="#000000" stroke="none">
<path d="M4920 8773 c-258 -157 -673 -319 -1205 -472 -121 -34 -319 -86 -365
-96 -8 -2 -42 -10 -75 -18 -33 -9 -71 -18 -85 -21 -53 -11 -73 -16 -76 -19 -2
-2 1 -30 7 -63 18 -97 15 -479 -6 -605 -2 -13 -6 -46 -10 -74 -10 -79 -15
-113 -35 -225 -29 -160 -29 -160 -50 -245 -10 -44 -21 -93 -25 -110 -3 -16 -8
-41 -10 -55 -20 -102 -26 -369 -13 -522 16 -170 82 -429 155 -608 74 -181 204
-400 344 -580 90 -116 334 -362 459 -462 128 -102 307 -227 435 -305 154 -93
546 -294 614 -314 32 -10 44 -7 116 26 629 285 1104 631 1445 1052 143 176
300 455 378 668 117 322 160 688 117 1000 -8 59 -8 54 -34 170 -21 94 -47 218
-56 270 -2 17 -7 39 -9 50 -2 11 -7 42 -10 68 -4 27 -9 58 -11 69 -3 11 -7 46
-10 77 -3 31 -8 67 -10 81 -16 89 -23 435 -11 515 16 107 17 125 10 126 -24 2
-389 91 -489 120 -277 78 -510 151 -655 206 -36 14 -72 26 -80 28 -75 17 -460
195 -583 270 -41 25 -78 45 -83 44 -5 0 -43 -21 -84 -46z m198 -1072 c8 -1 12
-24 12 -81 l0 -80 605 0 606 0 -3 -57 -3 -58 -602 0 -603 0 0 -1152 0 -1153
179 0 180 0 -2 -122 -2 -123 -477 -1 c-346 -1 -478 2 -481 10 -2 6 -3 61 -3
121 l1 110 180 5 180 5 -1 1140 c-1 627 -2 1145 -3 1150 -1 7 -208 10 -603 10
l-603 0 -3 57 -3 58 608 2 608 3 0 73 c0 44 5 76 12 80 9 5 145 7 221 3z
m-1263 -409 c-3 -15 -17 -63 -31 -107 -15 -44 -27 -87 -29 -95 -2 -8 -54 -177
-115 -375 -61 -198 -122 -394 -135 -435 l-23 -75 218 -3 c120 -1 320 -1 443 0
l225 3 -18 55 c-10 30 -37 116 -60 190 -59 193 -124 401 -180 580 -27 85 -53
171 -58 190 -6 19 -15 49 -20 67 -10 30 -9 31 23 31 22 0 35 -5 38 -16 5 -18
78 -251 222 -717 48 -154 96 -309 106 -344 10 -35 21 -66 23 -69 3 -2 -14 -21
-37 -42 -288 -256 -478 -420 -484 -420 -4 0 -28 19 -53 41 -65 59 -95 86 -293
262 -97 87 -175 163 -171 168 3 5 14 38 24 72 10 34 47 157 83 272 36 116 72
233 80 260 8 28 34 109 57 180 23 72 43 137 45 145 3 12 43 144 60 196 2 6 18
11 35 12 30 1 31 -1 25 -26z m2088 21 c3 -5 -4 -35 -14 -68 -11 -33 -30 -96
-43 -140 -14 -44 -66 -213 -116 -375 -51 -162 -94 -302 -95 -310 -2 -8 -17
-58 -34 -110 -17 -52 -31 -98 -31 -102 0 -5 198 -8 440 -8 242 0 440 4 440 8
0 5 -13 49 -29 98 -16 49 -46 143 -66 209 -20 66 -56 183 -80 260 -24 77 -60
192 -79 255 -19 63 -46 151 -60 195 -14 44 -26 83 -26 87 0 4 14 7 32 5 32 -2
33 -4 71 -122 21 -66 40 -127 42 -135 2 -8 33 -112 70 -230 37 -118 68 -219
69 -225 2 -5 13 -41 25 -80 13 -38 40 -126 61 -195 21 -69 41 -132 45 -141 7
-18 -11 -37 -121 -134 -38 -33 -94 -82 -124 -110 -273 -246 -261 -235 -271
-235 -6 0 -96 77 -129 110 -3 3 -28 25 -55 50 -143 128 -234 210 -282 255
l-53 50 46 145 c25 80 60 195 79 255 107 350 225 727 230 735 7 12 52 13 58 3z"/>
<path d="M2505 7428 c-44 -52 -61 -126 -43 -182 15 -45 23 -50 51 -31 54 35
84 150 57 219 -13 35 -33 33 -65 -6z"/>
<path d="M7441 7423 c-15 -54 -13 -99 5 -136 18 -36 63 -87 76 -87 19 0 39 72
33 118 -7 53 -18 77 -53 115 -35 36 -49 34 -61 -10z"/>
<path d="M2305 7167 c11 -108 95 -178 206 -172 67 3 125 40 155 98 19 36 11
47 -34 47 -50 -1 -112 -30 -145 -69 -26 -31 -27 -31 -27 -9 0 51 -75 131 -132
142 -27 4 -27 4 -23 -37z"/>
<path d="M7654 7192 c-48 -24 -82 -62 -95 -107 l-12 -42 -29 33 c-34 39 -101
67 -149 62 -28 -2 -33 -7 -31 -23 10 -53 87 -112 158 -122 45 -6 108 13 145
44 37 32 68 95 69 139 0 35 -13 38 -56 16z"/>
<path d="M2268 6925 c-6 -6 -4 -34 7 -82 7 -30 60 -90 96 -108 37 -19 105 -25
143 -12 44 14 94 53 111 87 22 42 19 47 -21 52 -45 5 -122 -29 -152 -67 l-22
-27 -10 28 c-19 53 -33 74 -65 99 -34 26 -76 40 -87 30z"/>
<path d="M7703 6923 c-30 -6 -102 -87 -110 -123 l-6 -30 -39 35 c-46 42 -79
56 -131 57 -47 0 -50 -3 -38 -34 24 -64 100 -112 177 -111 107 1 194 86 194
191 0 22 -4 23 -47 15z"/>
<path d="M2225 6660 c-3 -5 -4 -25 -1 -44 25 -157 216 -230 337 -129 36 31 76
103 57 104 -7 0 -22 2 -33 4 -40 8 -107 -18 -148 -56 -46 -44 -47 -45 -47 -23
0 9 -10 34 -22 55 -31 56 -126 116 -143 89z"/>
<path d="M7745 6657 c-17 -7 -40 -19 -52 -28 -26 -18 -73 -97 -73 -122 0 -13
-8 -9 -31 18 -45 51 -124 82 -176 69 -19 -5 -22 -11 -17 -28 20 -63 90 -115
169 -123 120 -14 225 79 225 200 0 30 -2 31 -45 14z"/>
<path d="M2200 6319 c1 -61 53 -130 128 -169 58 -30 172 -9 226 41 30 29 66
98 59 116 -14 37 -145 -14 -184 -72 -13 -19 -26 -35 -29 -35 -3 0 -14 17 -25
37 -28 51 -85 94 -134 100 -38 5 -41 4 -41 -18z"/>
<path d="M7720 6321 c-43 -23 -65 -46 -88 -95 l-19 -38 -21 35 c-26 46 -90 86
-147 94 -38 5 -45 3 -45 -11 0 -52 59 -127 120 -154 44 -19 124 -18 170 2 65
27 120 101 120 162 0 20 -5 24 -27 24 -16 -1 -44 -9 -63 -19z"/>
<path d="M2542 6017 c-41 -15 -88 -59 -111 -105 -18 -35 -18 -35 -30 -13 -32
60 -95 101 -162 106 -34 3 -39 0 -39 -18 0 -40 44 -100 94 -132 128 -79 302 0
321 146 3 24 0 29 -18 28 -12 0 -37 -6 -55 -12z"/>
<path d="M7403 5989 c15 -117 151 -193 275 -156 67 21 155 133 134 171 -7 13
-81 -2 -121 -25 -20 -11 -49 -38 -65 -61 l-29 -40 -12 29 c-25 59 -112 123
-168 123 -17 0 -19 -5 -14 -41z"/>
<path d="M2680 5723 c-36 -11 -77 -34 -103 -58 -33 -31 -67 -96 -67 -127 0
-20 -3 -19 -37 16 -47 49 -113 79 -170 78 -57 -2 -64 -7 -52 -41 25 -72 120
-133 208 -134 135 -1 250 112 239 234 -2 26 -7 35 -18 32z"/>
<path d="M7314 5716 c-3 -9 -3 -34 0 -56 30 -216 323 -280 432 -94 35 59 32
64 -33 64 -71 0 -127 -25 -170 -73 -18 -21 -34 -37 -36 -37 -1 0 -3 9 -4 20
-5 65 -72 144 -148 176 -31 13 -36 13 -41 0z"/>
<path d="M2805 5414 c-69 -35 -118 -109 -130 -197 l-7 -47 -33 29 c-52 45
-115 65 -186 58 -34 -3 -66 -10 -72 -16 -18 -18 35 -84 94 -116 188 -102 416
56 383 266 -7 44 -8 45 -49 23z"/>
<path d="M7164 5419 c-4 -7 -7 -38 -7 -70 0 -191 206 -314 379 -227 47 23 104
81 104 106 0 29 -99 42 -172 22 -21 -6 -57 -26 -82 -44 l-44 -34 -5 41 c-8 59
-11 68 -29 102 -18 34 -72 87 -105 104 -27 14 -30 14 -39 0z"/>
<path d="M2970 5119 c-70 -43 -117 -117 -122 -192 -1 -20 -4 -37 -6 -37 -2 0
-18 11 -35 23 -71 53 -180 72 -245 43 -40 -17 5 -81 85 -122 162 -81 355 15
379 190 7 47 -2 116 -14 116 -4 0 -23 -10 -42 -21z"/>
<path d="M6991 5117 c-22 -60 9 -177 63 -235 67 -74 216 -100 306 -53 48 25
63 38 98 88 l23 32 -38 10 c-87 25 -184 2 -245 -56 l-28 -27 -1 25 c-2 72 -38
148 -92 194 -51 44 -76 50 -86 22z"/>
<path d="M3134 4849 c-60 -38 -104 -127 -104 -211 l0 -49 -27 19 c-41 28 -83
42 -133 46 -45 3 -125 -15 -142 -32 -15 -15 39 -69 97 -96 163 -78 355 35 369
217 3 35 -11 108 -22 119 -4 4 -21 -2 -38 -13z"/>
<path d="M6831 4837 c-41 -124 21 -257 147 -315 93 -42 202 -22 280 51 17 17
32 34 32 39 0 18 -68 41 -127 42 -50 0 -73 -6 -121 -30 l-59 -31 -1 57 c0 85
-49 172 -114 206 -26 13 -27 13 -37 -19z"/>
<path d="M3322 4593 c-48 -50 -71 -119 -66 -195 l3 -57 -39 20 c-71 37 -179
33 -243 -9 l-27 -19 24 -26 c57 -61 191 -85 272 -48 123 56 188 185 154 306
-20 70 -34 75 -78 28z"/>
<path d="M6623 4593 c-24 -55 -21 -147 7 -206 24 -51 85 -108 142 -131 57 -24
164 -16 221 17 26 15 51 36 57 47 9 17 5 22 -32 42 -58 30 -165 31 -224 0
l-40 -20 2 66 c2 50 -2 79 -17 112 -20 44 -75 110 -91 110 -5 0 -16 -17 -25
-37z"/>
<path d="M3575 4348 c-59 -70 -86 -185 -62 -270 l7 -26 -43 21 c-61 30 -175
29 -240 -2 -61 -29 -67 -45 -31 -74 43 -33 69 -45 128 -56 179 -33 352 124
333 305 -6 57 -34 125 -53 131 -6 2 -24 -11 -39 -29z"/>
<path d="M6366 4328 c-68 -154 26 -338 197 -382 31 -8 65 -13 74 -12 10 2 37
7 60 11 52 8 135 61 131 83 -2 9 -25 27 -53 41 -64 34 -166 35 -237 3 l-47
-20 10 24 c13 37 11 113 -6 170 -14 48 -76 134 -96 134 -6 0 -21 -24 -33 -52z"/>
<path d="M3846 4139 c-66 -78 -85 -174 -53 -267 8 -23 14 -42 13 -42 0 0 -19
7 -41 15 -49 17 -140 19 -186 3 -45 -15 -109 -58 -109 -72 0 -15 56 -50 104
-66 52 -17 151 -8 203 19 53 26 114 88 139 138 14 28 19 60 19 123 0 75 -3 91
-28 133 -15 26 -30 47 -32 47 -2 0 -15 -14 -29 -31z"/>
<path d="M6122 4145 c-77 -98 -61 -264 34 -358 63 -63 107 -81 199 -81 66 -1
89 3 130 24 65 33 66 54 3 93 -61 38 -162 48 -233 24 l-46 -16 7 22 c33 104
19 200 -41 275 l-33 42 -20 -25z"/>
<path d="M4164 3934 c-53 -76 -63 -182 -25 -268 l20 -46 -37 6 c-20 3 -46 7
-57 8 -25 4 -112 -16 -145 -33 -27 -15 -90 -71 -90 -81 0 -4 22 -17 49 -29 40
-19 61 -23 122 -19 87 5 137 26 190 81 102 105 114 270 26 372 l-33 38 -20
-29z"/>
<path d="M5802 3937 c-68 -72 -85 -205 -38 -300 63 -131 185 -190 330 -162 31
6 86 35 86 45 -2 22 -81 83 -130 99 -44 14 -114 17 -162 7 l-36 -8 21 44 c30
60 30 176 0 234 -32 60 -45 68 -71 41z"/>
<path d="M4439 3763 c-40 -45 -54 -87 -54 -168 0 -63 5 -89 22 -122 l22 -42
-27 10 c-27 11 -108 13 -149 5 -58 -12 -153 -78 -153 -106 0 -6 21 -20 46 -31
91 -41 226 -20 294 46 l25 24 44 -29 c40 -27 139 -70 162 -70 5 0 14 12 19 26
13 33 13 34 -6 34 -23 0 -161 59 -173 74 -8 10 -6 25 9 58 11 25 20 65 21 89
3 60 -25 147 -58 187 -27 33 -29 33 -44 15z"/>
<path d="M5531 3745 c-59 -68 -76 -197 -36 -277 8 -17 15 -36 15 -43 0 -14
-120 -71 -168 -81 -37 -7 -36 -5 -20 -39 10 -21 16 -25 37 -20 39 9 160 66
172 81 8 10 20 6 55 -21 83 -64 204 -76 293 -31 39 21 39 37 1 70 -56 47 -118
67 -195 65 -38 -1 -76 -7 -84 -13 -12 -9 -13 -7 -7 9 52 124 51 203 0 293 -14
23 -26 42 -28 42 -2 0 -18 -16 -35 -35z"/>
<path d="M4981 3586 c-35 -37 -63 -124 -62 -189 1 -56 0 -58 -21 -51 -67 22
-136 7 -161 -35 -24 -40 -27 -71 -10 -104 20 -40 86 -64 82 -29 -3 35 2 43 36
58 27 11 40 12 56 4 23 -13 39 -49 34 -76 -2 -11 -4 -24 -4 -31 -2 -25 -43
-53 -69 -46 -22 5 -23 4 -13 -15 25 -46 82 -61 118 -30 10 8 13 5 13 -10 0
-11 5 -33 11 -49 10 -27 11 -27 25 -9 8 11 14 33 14 49 0 22 3 27 13 20 36
-29 106 -16 121 22 9 24 8 24 -20 22 -53 -4 -90 101 -51 140 36 36 123 2 114
-44 -4 -22 -2 -24 22 -18 58 15 83 68 58 127 -25 60 -111 83 -177 48 -16 -9
-18 -5 -15 38 3 59 -18 141 -47 186 -30 46 -41 50 -67 22z"/>
<path d="M6143 2309 c-179 -34 -293 -182 -295 -380 -1 -248 163 -409 410 -398
214 9 347 129 368 333 l7 66 -172 0 -172 0 3 -67 3 -68 53 -1 c29 0 55 -4 58
-7 9 -8 -24 -59 -51 -79 -37 -28 -95 -37 -150 -22 -145 36 -205 264 -107 407
68 101 223 104 305 7 14 -16 28 -39 32 -50 5 -17 15 -20 71 -20 l64 0 0 134
c0 98 -3 135 -12 139 -7 2 -35 4 -63 3 -46 -1 -50 -3 -53 -27 l-3 -25 -57 28
c-63 31 -162 42 -239 27z"/>
<path d="M7800 2305 c-160 -36 -276 -181 -285 -356 -9 -168 77 -320 218 -385
57 -27 71 -29 177 -29 110 0 118 2 183 34 137 69 209 192 209 361 0 167 -91
303 -239 360 -69 26 -183 32 -263 15z m209 -168 c97 -64 123 -263 48 -374 -68
-100 -198 -115 -273 -31 -55 60 -79 178 -55 275 36 143 167 205 280 130z"/>
<path d="M200 2240 l0 -70 50 0 50 0 0 -245 0 -245 -50 0 -50 0 0 -70 0 -70
320 0 320 0 0 185 0 185 -75 0 -75 0 0 -115 0 -115 -100 0 -100 0 0 245 0 245
50 0 50 0 0 70 0 70 -195 0 -195 0 0 -70z"/>
<path d="M1004 2301 c-2 -2 -4 -33 -4 -68 l0 -63 45 0 c25 0 45 -2 45 -5 0 -6
-74 -276 -112 -410 l-23 -80 -40 0 -40 0 -3 -68 -3 -68 158 3 158 3 3 63 c3
68 7 64 -65 65 -27 0 -28 3 -7 73 l15 54 88 0 88 0 13 -47 c7 -27 14 -55 16
-64 4 -13 -4 -16 -38 -15 l-43 1 -3 -68 -3 -67 176 0 c96 0 176 3 176 8 3 21
5 108 2 118 -2 5 -21 9 -43 8 -36 -1 -41 1 -49 30 -5 17 -36 124 -70 238 -33
113 -61 211 -61 217 0 6 19 11 45 11 l45 0 0 65 c0 36 -3 66 -7 66 -23 4 -455
4 -459 0z m271 -379 c-2 -2 -26 -4 -54 -5 -57 -2 -57 -2 -37 69 8 27 20 69 27
94 l12 45 27 -100 c15 -55 26 -101 25 -103z"/>
<path d="M1597 2295 c-2 -5 -3 -35 -3 -65 l1 -55 37 -3 37 -3 40 -122 c21 -67
67 -208 100 -313 34 -106 67 -194 74 -196 15 -6 126 -3 130 3 2 2 25 78 52
168 l49 164 56 -169 55 -169 63 -1 c34 0 66 4 71 10 4 6 16 38 26 71 9 33 27
92 39 130 12 39 47 150 77 247 l54 178 38 0 38 0 -3 67 -3 68 -130 0 c-71 1
-135 -1 -141 -3 -7 -2 -11 -27 -10 -65 l1 -62 33 -3 c17 -2 32 -5 32 -7 0 -8
-99 -328 -103 -332 -3 -2 -19 42 -37 99 -18 57 -41 129 -51 162 -24 76 -24 76
11 76 l31 0 -3 68 -3 67 -127 0 -128 0 0 -67 0 -68 31 0 c24 0 29 -4 25 -17
-58 -199 -89 -300 -95 -310 -3 -7 -28 59 -55 145 -27 86 -51 163 -53 170 -4 8
6 12 31 12 l36 0 0 68 0 67 -160 0 c-99 0 -161 -4 -163 -10z"/>
<path d="M2660 2300 c-5 -3 -9 -34 -9 -67 l1 -62 45 -3 45 -3 94 -145 94 -144
0 -102 0 -101 -47 1 -48 1 -3 -67 -3 -68 196 0 195 0 0 65 c0 51 -3 65 -15 66
-8 1 -30 2 -47 3 l-33 1 -2 100 -3 100 91 148 90 147 45 0 44 0 0 64 c0 42 -4
65 -12 68 -7 2 -78 4 -158 4 l-145 -1 -3 -68 -3 -67 36 0 37 0 -38 -67 c-62
-113 -58 -110 -87 -61 -42 72 -67 118 -67 123 0 3 14 5 30 5 l30 0 0 65 c0 36
-3 66 -7 66 -28 5 -336 3 -343 -1z"/>
<path d="M3449 2298 c-1 -5 -1 -30 -1 -58 0 -27 0 -54 1 -60 1 -5 19 -10 41
-10 l40 0 -2 -247 -3 -248 -30 -1 c-16 0 -35 -1 -40 -2 -7 -1 -11 -28 -10 -64
l0 -63 309 -3 c192 -1 312 1 316 7 3 6 5 61 5 123 l-1 113 -72 3 -72 3 0 -58
0 -58 -102 0 -103 1 -3 97 -3 97 91 0 90 0 0 65 0 65 -90 0 -90 0 0 85 0 85
105 0 105 0 0 -55 0 -55 73 0 72 0 0 120 c0 66 -2 121 -5 121 -22 6 -620 3
-621 -3z"/>
<path d="M4165 2301 c-3 -2 -5 -33 -5 -68 l0 -63 48 0 47 0 0 -239 c0 -132 -4
-243 -8 -248 -5 -4 -21 -9 -35 -9 -15 -1 -33 -2 -39 -3 -9 -1 -13 -21 -13 -66
l0 -65 188 2 187 3 1 50 c0 77 -2 81 -49 81 l-41 -1 -1 97 -1 96 38 4 37 3 80
-167 81 -168 110 0 111 0 -3 68 -3 67 -43 -1 -44 0 -55 110 -55 110 41 34 c53
43 72 81 75 146 5 96 -41 179 -120 212 -32 14 -79 17 -282 19 -133 0 -245 -1
-247 -4z m408 -142 c49 -22 60 -83 23 -126 -22 -25 -31 -28 -87 -28 l-63 0 -1
83 -1 82 53 0 c28 0 63 -5 76 -11z"/>
<path d="M5091 2299 c-80 -32 -123 -98 -123 -194 -1 -109 33 -153 185 -237 99
-56 120 -77 120 -123 0 -110 -148 -94 -170 18 l-9 42 -59 0 -60 0 -3 -133 -3
-132 66 0 c57 0 66 2 64 18 -3 33 1 34 31 9 57 -48 160 -47 229 4 59 42 83 97
83 183 0 126 -38 176 -199 262 -109 58 -135 86 -115 128 31 68 152 22 152 -59
0 -12 13 -15 65 -15 l65 0 0 115 c0 63 -3 115 -7 116 -5 1 -32 2 -60 3 -51 3
-58 -1 -54 -31 3 -18 -3 -16 -45 12 -39 27 -106 33 -153 14z"/>
<path d="M6726 2301 c-1 -3 -2 -33 -2 -66 l1 -60 48 -3 47 -3 0 -245 c0 -188
-3 -244 -12 -245 -7 -1 -24 -2 -38 -4 -14 -1 -30 -2 -35 -3 -7 -1 -11 -28 -10
-64 l0 -63 188 -3 188 -2 -3 67 -3 68 -40 0 -40 0 -3 98 -3 97 39 0 39 0 79
-165 79 -165 113 0 113 0 -3 68 -3 67 -43 0 -44 0 -57 110 -57 110 38 27 c122
89 98 306 -41 366 -29 12 -84 16 -284 17 -137 1 -249 -1 -251 -4z m435 -158
c14 -13 21 -33 21 -58 0 -57 -27 -78 -107 -83 l-65 -4 0 87 0 87 65 -4 c49 -3
71 -9 86 -25z"/>
<path d="M8400 2238 l0 -68 40 0 c31 0 40 -4 41 -17 0 -10 1 -119 3 -243 3
-238 6 -254 56 -308 78 -84 268 -95 369 -21 71 51 75 66 78 314 1 121 2 232 2
247 1 24 5 27 43 30 l42 3 0 63 c1 34 -1 63 -4 63 -31 7 -273 2 -279 -6 -6 -8
-7 -67 -2 -112 0 -8 15 -13 34 -13 l33 0 -1 -219 c-2 -186 -4 -223 -18 -245
-20 -30 -71 -46 -107 -34 -51 17 -55 35 -58 276 l-4 222 37 0 36 0 -3 68 -3
67 -167 0 -168 0 0 -67z"/>
<path d="M9152 2301 c-5 -3 -10 -34 -10 -68 l0 -62 45 -3 45 -3 -1 -220 c0
-121 0 -232 -1 -246 0 -22 -5 -26 -27 -27 -64 0 -62 3 -61 -67 l1 -65 188 0
189 0 0 68 0 68 -45 -2 c-25 -1 -45 1 -46 4 -4 22 -5 119 -2 127 2 6 39 11 82
12 136 3 207 34 249 111 45 80 44 203 -1 267 -68 94 -113 108 -384 110 -117 1
-216 -1 -221 -4z m411 -162 c22 -23 27 -36 27 -78 0 -74 -28 -103 -106 -109
l-59 -4 0 111 0 112 55 -2 c45 -2 60 -8 83 -30z"/>
</g>
</svg>
